<svg width="16" height="16" viewBox="0 0 16 16" fill="none" xmlns="http://www.w3.org/2000/svg">
<path d="M13.1668 7.33334V6.66668C13.1668 4.15252 13.1668 2.89544 12.3857 2.11439C11.6047 1.33334 10.3476 1.33334 7.83347 1.33334H7.16687C4.65272 1.33334 3.39564 1.33334 2.6146 2.11438C1.83355 2.89542 1.83354 4.15249 1.83352 6.66663L1.8335 9.33334C1.83347 11.8475 1.83346 13.1045 2.61448 13.8856C3.39553 14.6666 4.65265 14.6667 7.1668 14.6667" stroke="#24292E" stroke-width="1.5" stroke-linecap="round" stroke-linejoin="round"/>
<path d="M4.8335 4.66666H10.1668M4.8335 7.99999H10.1668" stroke="#24292E" stroke-width="1.5" stroke-linecap="round"/>
<path d="M8.83344 13.8845V14.6667H9.6157C9.88864 14.6667 10.0251 14.6667 10.1478 14.6159C10.2705 14.565 10.367 14.4685 10.56 14.2756L13.7757 11.0596C13.9577 10.8776 14.0487 10.7866 14.0974 10.6885C14.19 10.5017 14.19 10.2824 14.0974 10.0956C14.0487 9.99741 13.9577 9.90641 13.7757 9.72441C13.5936 9.54241 13.5026 9.45141 13.4044 9.40274C13.2176 9.31021 12.9983 9.31021 12.8115 9.40274C12.7134 9.45141 12.6223 9.54241 12.4403 9.72441L9.22457 12.9404C9.03157 13.1333 8.9351 13.2298 8.8843 13.3525C8.83343 13.4752 8.83344 13.6116 8.83344 13.8845Z" stroke="#0D0D0D" stroke-width="1.5" stroke-linejoin="round"/>
</svg>
